# Blender v2.78 (sub 0) OBJ File: 'imagem0.blend'
# www.blender.org
o imagem.000
v -22.807623 2.642296 -24.639999
v -22.807623 4.582295 -24.639999
v -22.807623 2.642296 -24.660000
v -22.807623 4.582295 -24.660000
v -21.187624 2.642296 -24.639999
v -21.187624 4.582295 -24.639999
v -21.187624 2.642296 -24.660000
v -21.187624 4.582295 -24.660000
vt 0.0000 0.0000
vt 0.0000 0.0000
vt 0.0000 0.0000
vt -0.0001 1.0000
vt 1.0001 0.0001
vt -0.0001 0.0001
vt 0.0000 0.0000
vt 0.0000 0.0000
vt 0.0000 0.0000
vt 0.9999 1.0000
vt 0.0001 0.0001
vt 0.9999 0.0001
vt 0.0000 0.0000
vt 0.0000 0.0000
vt 1.0001 1.0000
vt 0.0001 1.0000
vn -1.0000 0.0000 0.0000
vn 0.0000 0.0000 -1.0000
vn 1.0000 0.0000 0.0000
vn 0.0000 0.0000 1.0000
vn 0.0000 -1.0000 0.0000
vn 0.0000 1.0000 0.0000
s off
f 2/1/1 3/2/1 1/3/1
f 4/4/2 7/5/2 3/6/2
f 8/7/3 5/8/3 7/9/3
f 6/10/4 1/11/4 5/12/4
f 7/9/5 1/3/5 3/2/5
f 4/13/6 6/14/6 8/7/6
f 2/1/1 4/13/1 3/2/1
f 4/4/2 8/15/2 7/5/2
f 8/7/3 6/14/3 5/8/3
f 6/10/4 2/16/4 1/11/4
f 7/9/5 5/8/5 1/3/5
f 4/13/6 2/1/6 6/14/6
