# Blender v2.78 (sub 0) OBJ File: 'lampada.blend'
# www.blender.org
o lampada.009
v 22.074238 5.119646 21.820774
v 22.044641 5.025412 21.892223
v 22.179226 5.119646 21.925762
v 22.107777 5.025412 21.955359
v 22.179226 5.119646 22.074238
v 22.107777 5.025412 22.044641
v 22.074238 5.119646 22.179226
v 22.044641 5.025412 22.107777
v 21.925762 5.119646 22.179226
v 21.955359 5.025412 22.107777
v 21.820774 5.119646 22.074238
v 21.892223 5.025412 22.044641
v 21.820774 5.119646 21.925762
v 21.892223 5.025412 21.955359
v 21.925762 5.119646 21.820774
v 21.955359 5.025412 21.892223
vt 0.5313 0.3979
vt 0.5904 0.5339
vt 0.4555 0.5978
vt 0.3920 0.4588
vt 0.1777 0.6250
vt 0.1777 0.3697
vt 0.3579 0.8109
vt 0.6185 0.8150
vt 0.8050 0.6313
vt 0.8110 0.3714
vt 0.5898 0.4524
vt 0.6285 0.1820
vt 0.3610 0.1837
vt 0.4525 0.4030
vt 0.8719 0.3360
vt 0.8719 0.6540
vt 0.3289 0.8789
vt 0.3959 0.5417
vt 0.5363 0.5950
vt 0.1040 0.6540
vt 0.6470 0.1111
vt 0.1040 0.3360
vt 0.3289 0.1111
vt 0.6470 0.8789
vn 0.0000 -1.0000 0.0000
vn 0.0000 -0.6042 0.7968
vn 0.5634 -0.6042 0.5634
vn 0.7969 -0.6042 0.0000
vn 0.5635 -0.6042 -0.5635
vn 0.0000 -0.6042 -0.7968
vn -0.5635 -0.6042 -0.5635
vn -0.7969 -0.6042 0.0000
vn -0.5634 -0.6042 0.5634
vn 0.0000 1.0000 0.0000
vn 0.5634 -0.6042 0.5635
vn 0.5634 -0.6042 -0.5635
vn -0.5634 -0.6042 -0.5635
vn -0.5634 -0.6042 0.5635
s off
f 14/1/1 2/2/1 6/3/1
f 10/4/2 7/5/2 9/6/2
f 7/5/3 6/3/3 5/7/3
f 6/3/4 3/8/4 5/7/4
f 3/8/5 2/2/5 1/9/5
f 2/2/6 15/10/6 1/9/6
f 16/11/7 13/12/7 15/10/7
f 11/13/8 14/1/8 12/14/8
f 12/14/9 9/6/9 11/13/9
f 15/15/10 13/16/10 9/17/10
f 6/3/1 8/18/1 10/4/1
f 10/4/1 12/14/1 14/1/1
f 14/1/1 16/11/1 2/2/1
f 2/2/1 4/19/1 6/3/1
f 6/3/1 10/4/1 14/1/1
f 10/4/2 8/18/2 7/5/2
f 7/5/11 8/18/11 6/3/11
f 6/3/4 4/19/4 3/8/4
f 3/8/12 4/19/12 2/2/12
f 2/2/6 16/11/6 15/10/6
f 16/11/13 14/1/13 13/12/13
f 11/13/8 13/12/8 14/1/8
f 12/14/14 10/4/14 9/6/14
f 9/17/10 7/20/10 1/21/10
f 5/22/10 3/23/10 1/21/10
f 1/21/10 15/15/10 9/17/10
f 13/16/10 11/24/10 9/17/10
f 7/20/10 5/22/10 1/21/10
o lampada.008
v -21.925762 5.119646 -22.179226
v -21.955359 5.025412 -22.107777
v -21.820774 5.119646 -22.074238
v -21.892223 5.025412 -22.044641
v -21.820774 5.119646 -21.925762
v -21.892223 5.025412 -21.955359
v -21.925762 5.119646 -21.820774
v -21.955359 5.025412 -21.892223
v -22.074238 5.119646 -21.820774
v -22.044641 5.025412 -21.892223
v -22.179226 5.119646 -21.925762
v -22.107777 5.025412 -21.955359
v -22.179226 5.119646 -22.074238
v -22.107777 5.025412 -22.044641
v -22.074238 5.119646 -22.179226
v -22.044641 5.025412 -22.107777
vt 0.5313 0.3979
vt 0.5904 0.5339
vt 0.4555 0.5978
vt 0.3920 0.4588
vt 0.1777 0.6250
vt 0.1777 0.3697
vt 0.3959 0.5417
vt 0.3579 0.8109
vt 0.6185 0.8150
vt 0.5363 0.5950
vt 0.8050 0.6313
vt 0.8110 0.3714
vt 0.6285 0.1820
vt 0.3610 0.1837
vt 0.4525 0.4030
vt 0.8719 0.3360
vt 0.8719 0.6540
vt 0.3289 0.8789
vt 0.5898 0.4524
vt 0.1040 0.6540
vt 0.6470 0.1111
vt 0.1040 0.3360
vt 0.3289 0.1111
vt 0.6470 0.8789
vn 0.0000 -1.0000 0.0000
vn 0.0000 -0.6042 0.7968
vn 0.5635 -0.6042 0.5635
vn 0.7969 -0.6042 0.0000
vn 0.5634 -0.6042 -0.5634
vn 0.0000 -0.6042 -0.7968
vn -0.5634 -0.6042 -0.5634
vn -0.7969 -0.6042 0.0000
vn -0.5634 -0.6042 0.5635
vn 0.0000 1.0000 0.0000
vn 0.5634 -0.6042 0.5635
vn 0.5634 -0.6042 -0.5635
vn -0.5634 -0.6042 -0.5635
vn -0.5635 -0.6042 0.5635
s off
f 30/25/15 18/26/15 22/27/15
f 26/28/16 23/29/16 25/30/16
f 24/31/17 21/32/17 23/29/17
f 22/27/18 19/33/18 21/32/18
f 20/34/19 17/35/19 19/33/19
f 18/26/20 31/36/20 17/35/20
f 31/36/21 30/25/21 29/37/21
f 27/38/22 30/25/22 28/39/22
f 26/28/23 27/38/23 28/39/23
f 31/40/24 29/41/24 25/42/24
f 22/27/15 24/31/15 26/28/15
f 26/28/15 28/39/15 30/25/15
f 30/25/15 32/43/15 18/26/15
f 18/26/15 20/34/15 22/27/15
f 22/27/15 26/28/15 30/25/15
f 26/28/16 24/31/16 23/29/16
f 24/31/25 22/27/25 21/32/25
f 22/27/18 20/34/18 19/33/18
f 20/34/26 18/26/26 17/35/26
f 18/26/20 32/43/20 31/36/20
f 31/36/27 32/43/27 30/25/27
f 27/38/22 29/37/22 30/25/22
f 26/28/28 25/30/28 27/38/28
f 25/42/24 23/44/24 17/45/24
f 21/46/24 19/47/24 17/45/24
f 17/45/24 31/40/24 25/42/24
f 29/41/24 27/48/24 25/42/24
f 23/44/24 21/46/24 17/45/24
o lampada.007
v 10.074238 5.119646 -0.179225
v 10.044642 5.025412 -0.107776
v 10.179225 5.119646 -0.074237
v 10.107776 5.025412 -0.044642
v 10.179225 5.119646 0.074238
v 10.107776 5.025412 0.044642
v 10.074238 5.119646 0.179225
v 10.044642 5.025412 0.107776
v 9.925762 5.119646 0.179225
v 9.955358 5.025412 0.107776
v 9.820775 5.119646 0.074238
v 9.892224 5.025412 0.044642
v 9.820775 5.119646 -0.074237
v 9.892224 5.025412 -0.044642
v 9.925762 5.119646 -0.179225
v 9.955358 5.025412 -0.107776
vt 0.5313 0.3979
vt 0.5363 0.5950
vt 0.4555 0.5978
vt 0.3920 0.4588
vt 0.1777 0.6250
vt 0.1777 0.3697
vt 0.3579 0.8109
vt 0.6185 0.8150
vt 0.8050 0.6313
vt 0.5904 0.5339
vt 0.8110 0.3714
vt 0.5898 0.4524
vt 0.6285 0.1820
vt 0.3610 0.1837
vt 0.4525 0.4030
vt 0.6470 0.1111
vt 0.8719 0.6540
vt 0.1040 0.3360
vt 0.3959 0.5417
vt 0.3289 0.8789
vt 0.1040 0.6540
vt 0.3289 0.1111
vt 0.8719 0.3360
vt 0.6470 0.8789
vn 0.0000 -1.0000 0.0000
vn 0.0000 -0.6042 0.7968
vn 0.5635 -0.6042 0.5635
vn 0.7969 -0.6042 0.0000
vn 0.5635 -0.6042 -0.5635
vn -0.0000 -0.6042 -0.7968
vn -0.5635 -0.6042 -0.5635
vn -0.7969 -0.6042 0.0000
vn -0.5635 -0.6042 0.5634
vn 0.0000 1.0000 0.0000
vn 0.7968 -0.6042 0.0000
vn 0.5634 -0.6042 -0.5634
vn -0.7968 -0.6042 0.0000
vn -0.5635 -0.6042 0.5635
s off
f 46/49/29 36/50/29 38/51/29
f 42/52/30 39/53/30 41/54/30
f 39/53/31 38/51/31 37/55/31
f 38/51/32 35/56/32 37/55/32
f 36/50/33 33/57/33 35/56/33
f 34/58/34 47/59/34 33/57/34
f 48/60/35 45/61/35 47/59/35
f 43/62/36 46/49/36 44/63/36
f 42/52/37 43/62/37 44/63/37
f 33/64/38 45/65/38 37/66/38
f 38/51/29 40/67/29 42/52/29
f 42/52/29 44/63/29 38/51/29
f 46/49/29 48/60/29 34/58/29
f 34/58/29 36/50/29 46/49/29
f 38/51/29 44/63/29 46/49/29
f 42/52/30 40/67/30 39/53/30
f 39/53/31 40/67/31 38/51/31
f 38/51/39 36/50/39 35/56/39
f 36/50/40 34/58/40 33/57/40
f 34/58/34 48/60/34 47/59/34
f 48/60/35 46/49/35 45/61/35
f 43/62/41 45/61/41 46/49/41
f 42/52/42 41/54/42 43/62/42
f 41/68/38 39/69/38 37/66/38
f 37/66/38 35/70/38 33/64/38
f 33/64/38 47/71/38 45/65/38
f 45/65/38 43/72/38 41/68/38
f 41/68/38 37/66/38 45/65/38
o lampada.006
v -9.925762 5.119646 -0.179225
v -9.955358 5.025412 -0.107776
v -9.820775 5.119646 -0.074237
v -9.892224 5.025412 -0.044642
v -9.820775 5.119646 0.074238
v -9.892224 5.025412 0.044642
v -9.925762 5.119646 0.179225
v -9.955358 5.025412 0.107776
v -10.074238 5.119646 0.179225
v -10.044642 5.025412 0.107776
v -10.179225 5.119646 0.074238
v -10.107776 5.025412 0.044642
v -10.179225 5.119646 -0.074237
v -10.107776 5.025412 -0.044642
v -10.074238 5.119646 -0.179225
v -10.044642 5.025412 -0.107776
vt 0.5313 0.3979
vt 0.5363 0.5950
vt 0.4555 0.5978
vt 0.3920 0.4588
vt 0.1777 0.6250
vt 0.1777 0.3697
vt 0.3579 0.8109
vt 0.6185 0.8150
vt 0.5904 0.5339
vt 0.8050 0.6313
vt 0.8110 0.3714
vt 0.6285 0.1820
vt 0.3610 0.1837
vt 0.4525 0.4030
vt 0.6470 0.1111
vt 0.8719 0.6540
vt 0.1040 0.3360
vt 0.3959 0.5417
vt 0.5898 0.4524
vt 0.3289 0.8789
vt 0.1040 0.6540
vt 0.3289 0.1111
vt 0.8719 0.3360
vt 0.6470 0.8789
vn 0.0000 -1.0000 0.0000
vn 0.0000 -0.6042 0.7968
vn 0.5635 -0.6042 0.5635
vn 0.7968 -0.6042 0.0000
vn 0.5635 -0.6042 -0.5635
vn -0.0000 -0.6042 -0.7968
vn -0.5635 -0.6042 -0.5635
vn -0.7969 -0.6042 0.0000
vn -0.5635 -0.6042 0.5635
vn 0.0000 1.0000 0.0000
vn -0.7968 -0.6042 0.0000
s off
f 62/73/43 52/74/43 54/75/43
f 58/76/44 55/77/44 57/78/44
f 55/77/45 54/75/45 53/79/45
f 54/75/46 51/80/46 53/79/46
f 51/80/47 50/81/47 49/82/47
f 50/81/48 63/83/48 49/82/48
f 63/83/49 62/73/49 61/84/49
f 59/85/50 62/73/50 60/86/50
f 60/86/51 57/78/51 59/85/51
f 49/87/52 61/88/52 53/89/52
f 54/75/43 56/90/43 58/76/43
f 58/76/43 60/86/43 54/75/43
f 62/73/43 64/91/43 50/81/43
f 50/81/43 52/74/43 62/73/43
f 54/75/43 60/86/43 62/73/43
f 58/76/44 56/90/44 55/77/44
f 55/77/45 56/90/45 54/75/45
f 54/75/46 52/74/46 51/80/46
f 51/80/47 52/74/47 50/81/47
f 50/81/48 64/91/48 63/83/48
f 63/83/49 64/91/49 62/73/49
f 59/85/53 61/84/53 62/73/53
f 60/86/51 58/76/51 57/78/51
f 57/92/52 55/93/52 53/89/52
f 53/89/52 51/94/52 49/87/52
f 49/87/52 63/95/52 61/88/52
f 61/88/52 59/96/52 57/92/52
f 57/92/52 53/89/52 61/88/52
o lampada.005
v 13.074238 5.119646 -13.179225
v 13.044642 5.025412 -13.107776
v 13.179225 5.119646 -13.074238
v 13.107776 5.025412 -13.044642
v 13.179225 5.119646 -12.925762
v 13.107776 5.025412 -12.955358
v 13.074238 5.119646 -12.820775
v 13.044642 5.025412 -12.892224
v 12.925762 5.119646 -12.820775
v 12.955358 5.025412 -12.892224
v 12.820775 5.119646 -12.925762
v 12.892224 5.025412 -12.955358
v 12.820775 5.119646 -13.074238
v 12.892224 5.025412 -13.044642
v 12.925762 5.119646 -13.179225
v 12.955358 5.025412 -13.107776
vt 0.5313 0.3979
vt 0.5363 0.5950
vt 0.4555 0.5978
vt 0.3920 0.4588
vt 0.1777 0.6250
vt 0.1777 0.3697
vt 0.3959 0.5417
vt 0.3579 0.8109
vt 0.6185 0.8150
vt 0.5904 0.5339
vt 0.8050 0.6313
vt 0.8110 0.3714
vt 0.5898 0.4524
vt 0.6285 0.1820
vt 0.3610 0.1837
vt 0.4525 0.4030
vt 0.8719 0.3360
vt 0.8719 0.6540
vt 0.3289 0.8789
vt 0.1040 0.6540
vt 0.6470 0.1111
vt 0.1040 0.3360
vt 0.3289 0.1111
vt 0.6470 0.8789
vn 0.0000 -1.0000 0.0000
vn 0.0000 -0.6042 0.7968
vn 0.5635 -0.6042 0.5635
vn 0.7968 -0.6042 0.0000
vn 0.5635 -0.6042 -0.5635
vn 0.0000 -0.6042 -0.7968
vn -0.5635 -0.6042 -0.5635
vn -0.7969 -0.6042 0.0000
vn -0.5635 -0.6042 0.5635
vn 0.0000 1.0000 0.0000
vn 0.7969 -0.6042 0.0000
vn -0.7968 -0.6042 0.0000
s off
f 78/97/54 68/98/54 70/99/54
f 74/100/55 71/101/55 73/102/55
f 72/103/56 69/104/56 71/101/56
f 70/99/57 67/105/57 69/104/57
f 67/105/58 66/106/58 65/107/58
f 66/106/59 79/108/59 65/107/59
f 80/109/60 77/110/60 79/108/60
f 75/111/61 78/97/61 76/112/61
f 74/100/62 75/111/62 76/112/62
f 79/113/63 77/114/63 73/115/63
f 70/99/54 72/103/54 74/100/54
f 74/100/54 76/112/54 70/99/54
f 78/97/54 80/109/54 66/106/54
f 66/106/54 68/98/54 78/97/54
f 70/99/54 76/112/54 78/97/54
f 74/100/55 72/103/55 71/101/55
f 72/103/56 70/99/56 69/104/56
f 70/99/64 68/98/64 67/105/64
f 67/105/58 68/98/58 66/106/58
f 66/106/59 80/109/59 79/108/59
f 80/109/60 78/97/60 77/110/60
f 75/111/65 77/110/65 78/97/65
f 74/100/62 73/102/62 75/111/62
f 73/115/63 71/116/63 65/117/63
f 69/118/63 67/119/63 65/117/63
f 65/117/63 79/113/63 73/115/63
f 77/114/63 75/120/63 73/115/63
f 71/116/63 69/118/63 65/117/63
o lampada.004
v -12.925762 5.119646 12.820775
v -12.955358 5.025412 12.892224
v -12.820775 5.119646 12.925762
v -12.892224 5.025412 12.955358
v -12.820775 5.119646 13.074238
v -12.892224 5.025412 13.044642
v -12.925762 5.119646 13.179225
v -12.955358 5.025412 13.107776
v -13.074238 5.119646 13.179225
v -13.044642 5.025412 13.107776
v -13.179225 5.119646 13.074238
v -13.107776 5.025412 13.044642
v -13.179225 5.119646 12.925762
v -13.107776 5.025412 12.955358
v -13.074238 5.119646 12.820775
v -13.044642 5.025412 12.892224
vt 0.5313 0.3979
vt 0.5363 0.5950
vt 0.4555 0.5978
vt 0.3920 0.4588
vt 0.1777 0.6250
vt 0.1777 0.3697
vt 0.3959 0.5417
vt 0.3579 0.8109
vt 0.6185 0.8150
vt 0.5904 0.5339
vt 0.8050 0.6313
vt 0.8110 0.3714
vt 0.5898 0.4524
vt 0.6285 0.1820
vt 0.3610 0.1837
vt 0.4525 0.4030
vt 0.8719 0.3360
vt 0.8719 0.6540
vt 0.3289 0.8789
vt 0.1040 0.6540
vt 0.6470 0.1111
vt 0.1040 0.3360
vt 0.3289 0.1111
vt 0.6470 0.8789
vn 0.0000 -1.0000 0.0000
vn 0.0000 -0.6042 0.7968
vn 0.5635 -0.6042 0.5635
vn 0.7968 -0.6042 0.0000
vn 0.5635 -0.6042 -0.5635
vn 0.0000 -0.6042 -0.7968
vn -0.5635 -0.6042 -0.5635
vn -0.7969 -0.6042 0.0000
vn -0.5635 -0.6042 0.5635
vn 0.0000 1.0000 0.0000
vn 0.7969 -0.6042 0.0000
vn -0.7968 -0.6042 0.0000
s off
f 94/121/66 84/122/66 86/123/66
f 90/124/67 87/125/67 89/126/67
f 88/127/68 85/128/68 87/125/68
f 86/123/69 83/129/69 85/128/69
f 83/129/70 82/130/70 81/131/70
f 82/130/71 95/132/71 81/131/71
f 96/133/72 93/134/72 95/132/72
f 91/135/73 94/121/73 92/136/73
f 90/124/74 91/135/74 92/136/74
f 95/137/75 93/138/75 89/139/75
f 86/123/66 88/127/66 90/124/66
f 90/124/66 92/136/66 86/123/66
f 94/121/66 96/133/66 82/130/66
f 82/130/66 84/122/66 94/121/66
f 86/123/66 92/136/66 94/121/66
f 90/124/67 88/127/67 87/125/67
f 88/127/68 86/123/68 85/128/68
f 86/123/76 84/122/76 83/129/76
f 83/129/70 84/122/70 82/130/70
f 82/130/71 96/133/71 95/132/71
f 96/133/72 94/121/72 93/134/72
f 91/135/77 93/134/77 94/121/77
f 90/124/74 89/126/74 91/135/74
f 89/139/75 87/140/75 81/141/75
f 85/142/75 83/143/75 81/141/75
f 81/141/75 95/137/75 89/139/75
f 93/138/75 91/144/75 89/139/75
f 87/140/75 85/142/75 81/141/75
o lampada.003
v 18.074238 5.119646 -18.179226
v 18.044641 5.025412 -18.107777
v 18.179226 5.119646 -18.074238
v 18.107777 5.025412 -18.044641
v 18.179226 5.119646 -17.925762
v 18.107777 5.025412 -17.955359
v 18.074238 5.119646 -17.820774
v 18.044641 5.025412 -17.892223
v 17.925762 5.119646 -17.820774
v 17.955359 5.025412 -17.892223
v 17.820774 5.119646 -17.925762
v 17.892223 5.025412 -17.955359
v 17.820774 5.119646 -18.074238
v 17.892223 5.025412 -18.044641
v 17.925762 5.119646 -18.179226
v 17.955359 5.025412 -18.107777
vt 0.5313 0.3979
vt 0.5904 0.5339
vt 0.4555 0.5978
vt 0.3920 0.4588
vt 0.1777 0.6250
vt 0.1777 0.3697
vt 0.3959 0.5417
vt 0.3579 0.8109
vt 0.6185 0.8150
vt 0.8050 0.6313
vt 0.8110 0.3714
vt 0.6285 0.1820
vt 0.3610 0.1837
vt 0.4525 0.4030
vt 0.8719 0.3360
vt 0.8719 0.6540
vt 0.3289 0.8789
vt 0.5898 0.4524
vt 0.5363 0.5950
vt 0.1040 0.6540
vt 0.6470 0.1111
vt 0.1040 0.3360
vt 0.3289 0.1111
vt 0.6470 0.8789
vn 0.0000 -1.0000 0.0000
vn 0.0000 -0.6042 0.7968
vn 0.5635 -0.6042 0.5635
vn 0.7969 -0.6042 0.0000
vn 0.5635 -0.6042 -0.5635
vn 0.0000 -0.6042 -0.7968
vn -0.5635 -0.6042 -0.5635
vn -0.7969 -0.6042 0.0000
vn -0.5634 -0.6042 0.5634
vn 0.0000 1.0000 0.0000
vn 0.5634 -0.6042 0.5635
vn 0.5634 -0.6042 -0.5635
vn -0.5635 -0.6042 0.5635
s off
f 110/145/78 98/146/78 102/147/78
f 106/148/79 103/149/79 105/150/79
f 104/151/80 101/152/80 103/149/80
f 102/147/81 99/153/81 101/152/81
f 99/153/82 98/146/82 97/154/82
f 98/146/83 111/155/83 97/154/83
f 111/155/84 110/145/84 109/156/84
f 107/157/85 110/145/85 108/158/85
f 108/158/86 105/150/86 107/157/86
f 111/159/87 109/160/87 105/161/87
f 102/147/78 104/151/78 106/148/78
f 106/148/78 108/158/78 110/145/78
f 110/145/78 112/162/78 98/146/78
f 98/146/78 100/163/78 102/147/78
f 102/147/78 106/148/78 110/145/78
f 106/148/79 104/151/79 103/149/79
f 104/151/88 102/147/88 101/152/88
f 102/147/81 100/163/81 99/153/81
f 99/153/89 100/163/89 98/146/89
f 98/146/83 112/162/83 111/155/83
f 111/155/84 112/162/84 110/145/84
f 107/157/85 109/156/85 110/145/85
f 108/158/90 106/148/90 105/150/90
f 105/161/87 103/164/87 97/165/87
f 101/166/87 99/167/87 97/165/87
f 97/165/87 111/159/87 105/161/87
f 109/160/87 107/168/87 105/161/87
f 103/164/87 101/166/87 97/165/87
o lampada.002
v -17.925762 5.119646 17.820774
v -17.955359 5.025412 17.892223
v -17.820774 5.119646 17.925762
v -17.892223 5.025412 17.955359
v -17.820774 5.119646 18.074238
v -17.892223 5.025412 18.044641
v -17.925762 5.119646 18.179226
v -17.955359 5.025412 18.107777
v -18.074238 5.119646 18.179226
v -18.044641 5.025412 18.107777
v -18.179226 5.119646 18.074238
v -18.107777 5.025412 18.044641
v -18.179226 5.119646 17.925762
v -18.107777 5.025412 17.955359
v -18.074238 5.119646 17.820774
v -18.044641 5.025412 17.892223
vt 0.5313 0.3979
vt 0.5904 0.5339
vt 0.4555 0.5978
vt 0.3920 0.4588
vt 0.1777 0.6250
vt 0.1777 0.3697
vt 0.3579 0.8109
vt 0.6185 0.8150
vt 0.5363 0.5950
vt 0.8050 0.6313
vt 0.8110 0.3714
vt 0.5898 0.4524
vt 0.6285 0.1820
vt 0.3610 0.1837
vt 0.4525 0.4030
vt 0.8719 0.3360
vt 0.8719 0.6540
vt 0.3289 0.8789
vt 0.3959 0.5417
vt 0.1040 0.6540
vt 0.6470 0.1111
vt 0.1040 0.3360
vt 0.3289 0.1111
vt 0.6470 0.8789
vn 0.0000 -1.0000 0.0000
vn 0.0000 -0.6042 0.7968
vn 0.5635 -0.6042 0.5635
vn 0.7969 -0.6042 0.0000
vn 0.5634 -0.6042 -0.5634
vn 0.0000 -0.6042 -0.7968
vn -0.5635 -0.6042 -0.5635
vn -0.7969 -0.6042 0.0000
vn -0.5634 -0.6042 0.5635
vn 0.0000 1.0000 0.0000
vn 0.5635 -0.6042 -0.5635
vn -0.5634 -0.6042 -0.5635
vn -0.5635 -0.6042 0.5635
s off
f 126/169/91 114/170/91 118/171/91
f 122/172/92 119/173/92 121/174/92
f 119/173/93 118/171/93 117/175/93
f 118/171/94 115/176/94 117/175/94
f 116/177/95 113/178/95 115/176/95
f 114/170/96 127/179/96 113/178/96
f 128/180/97 125/181/97 127/179/97
f 123/182/98 126/169/98 124/183/98
f 122/172/99 123/182/99 124/183/99
f 127/184/100 125/185/100 121/186/100
f 118/171/91 120/187/91 122/172/91
f 122/172/91 124/183/91 126/169/91
f 126/169/91 128/180/91 114/170/91
f 114/170/91 116/177/91 118/171/91
f 118/171/91 122/172/91 126/169/91
f 122/172/92 120/187/92 119/173/92
f 119/173/93 120/187/93 118/171/93
f 118/171/94 116/177/94 115/176/94
f 116/177/101 114/170/101 113/178/101
f 114/170/96 128/180/96 127/179/96
f 128/180/102 126/169/102 125/181/102
f 123/182/98 125/181/98 126/169/98
f 122/172/103 121/174/103 123/182/103
f 121/186/100 119/188/100 113/189/100
f 117/190/100 115/191/100 113/189/100
f 113/189/100 127/184/100 121/186/100
f 125/185/100 123/192/100 121/186/100
f 119/188/100 117/190/100 113/189/100
o lampada.001
v 22.074238 5.119646 -22.179226
v 22.044641 5.025412 -22.107777
v 22.179226 5.119646 -22.074238
v 22.107777 5.025412 -22.044641
v 22.179226 5.119646 -21.925762
v 22.107777 5.025412 -21.955359
v 22.074238 5.119646 -21.820774
v 22.044641 5.025412 -21.892223
v 21.925762 5.119646 -21.820774
v 21.955359 5.025412 -21.892223
v 21.820774 5.119646 -21.925762
v 21.892223 5.025412 -21.955359
v 21.820774 5.119646 -22.074238
v 21.892223 5.025412 -22.044641
v 21.925762 5.119646 -22.179226
v 21.955359 5.025412 -22.107777
vt 0.5313 0.3979
vt 0.5904 0.5339
vt 0.4555 0.5978
vt 0.3920 0.4588
vt 0.1777 0.6250
vt 0.1777 0.3697
vt 0.3959 0.5417
vt 0.3579 0.8109
vt 0.6185 0.8150
vt 0.5363 0.5950
vt 0.8050 0.6313
vt 0.8110 0.3714
vt 0.6285 0.1820
vt 0.3610 0.1837
vt 0.4525 0.4030
vt 0.8719 0.3360
vt 0.8719 0.6540
vt 0.3289 0.8789
vt 0.5898 0.4524
vt 0.1040 0.6540
vt 0.6470 0.1111
vt 0.1040 0.3360
vt 0.3289 0.1111
vt 0.6470 0.8789
vn 0.0000 -1.0000 0.0000
vn 0.0000 -0.6042 0.7968
vn 0.5635 -0.6042 0.5635
vn 0.7969 -0.6042 0.0000
vn 0.5634 -0.6042 -0.5634
vn 0.0000 -0.6042 -0.7968
vn -0.5634 -0.6042 -0.5634
vn -0.7969 -0.6042 0.0000
vn -0.5634 -0.6042 0.5635
vn 0.0000 1.0000 0.0000
vn 0.5634 -0.6042 0.5635
vn 0.5634 -0.6042 -0.5635
vn -0.5634 -0.6042 -0.5635
vn -0.5635 -0.6042 0.5635
s off
f 142/193/104 130/194/104 134/195/104
f 138/196/105 135/197/105 137/198/105
f 136/199/106 133/200/106 135/197/106
f 134/195/107 131/201/107 133/200/107
f 132/202/108 129/203/108 131/201/108
f 130/194/109 143/204/109 129/203/109
f 143/204/110 142/193/110 141/205/110
f 139/206/111 142/193/111 140/207/111
f 138/196/112 139/206/112 140/207/112
f 143/208/113 141/209/113 137/210/113
f 134/195/104 136/199/104 138/196/104
f 138/196/104 140/207/104 142/193/104
f 142/193/104 144/211/104 130/194/104
f 130/194/104 132/202/104 134/195/104
f 134/195/104 138/196/104 142/193/104
f 138/196/105 136/199/105 135/197/105
f 136/199/114 134/195/114 133/200/114
f 134/195/107 132/202/107 131/201/107
f 132/202/115 130/194/115 129/203/115
f 130/194/109 144/211/109 143/204/109
f 143/204/116 144/211/116 142/193/116
f 139/206/111 141/205/111 142/193/111
f 138/196/117 137/198/117 139/206/117
f 137/210/113 135/212/113 129/213/113
f 133/214/113 131/215/113 129/213/113
f 129/213/113 143/208/113 137/210/113
f 141/209/113 139/216/113 137/210/113
f 135/212/113 133/214/113 129/213/113
o lampada.000
v -21.925762 5.119646 21.820774
v -21.955359 5.025412 21.892223
v -21.820774 5.119646 21.925762
v -21.892223 5.025412 21.955359
v -21.820774 5.119646 22.074238
v -21.892223 5.025412 22.044641
v -21.925762 5.119646 22.179226
v -21.955359 5.025412 22.107777
v -22.074238 5.119646 22.179226
v -22.044641 5.025412 22.107777
v -22.179226 5.119646 22.074238
v -22.107777 5.025412 22.044641
v -22.179226 5.119646 21.925762
v -22.107777 5.025412 21.955359
v -22.074238 5.119646 21.820774
v -22.044641 5.025412 21.892223
vt 0.5313 0.3979
vt 0.5904 0.5339
vt 0.4555 0.5978
vt 0.3920 0.4588
vt 0.1777 0.6250
vt 0.1777 0.3697
vt 0.3579 0.8109
vt 0.6185 0.8150
vt 0.8050 0.6313
vt 0.8110 0.3714
vt 0.5898 0.4524
vt 0.6285 0.1820
vt 0.3610 0.1837
vt 0.4525 0.4030
vt 0.8719 0.3360
vt 0.8719 0.6540
vt 0.3289 0.8789
vt 0.3959 0.5417
vt 0.5363 0.5950
vt 0.1040 0.6540
vt 0.6470 0.1111
vt 0.1040 0.3360
vt 0.3289 0.1111
vt 0.6470 0.8789
vn 0.0000 -1.0000 0.0000
vn 0.0000 -0.6042 0.7968
vn 0.5634 -0.6042 0.5634
vn 0.7969 -0.6042 0.0000
vn 0.5635 -0.6042 -0.5635
vn 0.0000 -0.6042 -0.7968
vn -0.5635 -0.6042 -0.5635
vn -0.7969 -0.6042 0.0000
vn -0.5634 -0.6042 0.5634
vn 0.0000 1.0000 0.0000
vn 0.5634 -0.6042 0.5635
vn 0.5634 -0.6042 -0.5635
vn -0.5634 -0.6042 -0.5635
vn -0.5634 -0.6042 0.5635
s off
f 158/217/118 146/218/118 150/219/118
f 154/220/119 151/221/119 153/222/119
f 151/221/120 150/219/120 149/223/120
f 150/219/121 147/224/121 149/223/121
f 147/224/122 146/218/122 145/225/122
f 146/218/123 159/226/123 145/225/123
f 160/227/124 157/228/124 159/226/124
f 155/229/125 158/217/125 156/230/125
f 156/230/126 153/222/126 155/229/126
f 159/231/127 157/232/127 153/233/127
f 150/219/118 152/234/118 154/220/118
f 154/220/118 156/230/118 158/217/118
f 158/217/118 160/227/118 146/218/118
f 146/218/118 148/235/118 150/219/118
f 150/219/118 154/220/118 158/217/118
f 154/220/119 152/234/119 151/221/119
f 151/221/128 152/234/128 150/219/128
f 150/219/121 148/235/121 147/224/121
f 147/224/129 148/235/129 146/218/129
f 146/218/123 160/227/123 159/226/123
f 160/227/130 158/217/130 157/228/130
f 155/229/125 157/228/125 158/217/125
f 156/230/131 154/220/131 153/222/131
f 153/233/127 151/236/127 145/237/127
f 149/238/127 147/239/127 145/237/127
f 145/237/127 159/231/127 153/233/127
f 157/232/127 155/240/127 153/233/127
f 151/236/127 149/238/127 145/237/127
