# Blender v2.78 (sub 0) OBJ File: 'mesa.blend'
# www.blender.org
o mesa.002
v 20.000000 2.110000 23.000000
v 20.000000 2.310000 23.000000
v 20.000000 2.110000 21.000000
v 20.000000 2.310000 21.000000
v 24.000000 2.110000 23.000000
v 24.000000 2.310000 23.000000
v 24.000000 2.110000 21.000000
v 24.000000 2.310000 21.000000
v 23.799999 0.110000 23.000000
v 23.799999 2.110000 23.000000
v 23.799999 0.110000 22.799999
v 23.799999 2.110000 22.799999
v 24.000000 0.110000 23.000000
v 24.000000 0.110000 22.799999
v 24.000000 2.110000 22.799999
v 23.799999 0.110000 21.200001
v 23.799999 2.110000 21.200001
v 23.799999 0.110000 21.000000
v 23.799999 2.110000 21.000000
v 24.000000 0.110000 21.200001
v 24.000000 2.110000 21.200001
v 24.000000 0.110000 21.000000
v 20.000000 0.110000 21.200001
v 20.000000 2.110000 21.200001
v 20.000000 0.110000 21.000000
v 20.200001 0.110000 21.200001
v 20.200001 2.110000 21.200001
v 20.200001 0.110000 21.000000
v 20.200001 2.110000 21.000000
v 20.000000 0.110000 23.000000
v 20.000000 0.110000 22.799999
v 20.000000 2.110000 22.799999
v 20.200001 0.110000 23.000000
v 20.200001 2.110000 23.000000
v 20.200001 0.110000 22.799999
v 20.200001 2.110000 22.799999
v 20.000000 2.110000 22.799999
v 20.000000 0.110000 22.799999
v 20.000000 0.110000 23.000000
v 20.000000 2.110000 23.000000
vt 1.0000 0.0000
vt 0.0000 1.0000
vt 0.0000 0.0000
vt 1.0000 0.0000
vt 0.0000 1.0000
vt 0.0000 0.0000
vt 1.0000 0.0000
vt 0.0000 1.0000
vt 0.0000 0.0000
vt 1.0000 0.0000
vt 0.0000 1.0000
vt 0.0000 0.0000
vt 0.0000 1.0000
vt 0.0000 0.0000
vt 1.0000 0.0000
vt 0.0000 1.0000
vt 0.0000 0.0000
vt 1.0000 0.0000
vt 0.0000 1.0000
vt 0.0000 0.0000
vt 1.0000 0.0000
vt 0.0000 1.0000
vt 0.0000 0.0000
vt 1.0000 0.0000
vt 0.0000 1.0000
vt 0.0000 0.0000
vt 1.0000 0.0000
vt 1.0000 0.0000
vt 0.0000 1.0000
vt 0.0000 0.0000
vt 1.0000 0.0000
vt 0.0000 1.0000
vt 0.0000 0.0000
vt 1.0000 0.0000
vt 0.0000 1.0000
vt 0.0000 0.0000
vt 1.0000 0.0000
vt 0.0000 1.0000
vt 0.0000 0.0000
vt 1.0000 0.0000
vt 1.0000 0.0000
vt 0.0000 1.0000
vt 0.0000 0.0000
vt 1.0000 0.0000
vt 0.0000 1.0000
vt 0.0000 0.0000
vt 1.0000 0.0000
vt 0.0000 1.0000
vt 0.0000 0.0000
vt 1.0000 0.0000
vt 0.0000 1.0000
vt 0.0000 0.0000
vt 1.0000 0.0000
vt 1.0000 0.0000
vt 0.0000 1.0000
vt 0.0000 0.0000
vt 1.0000 0.0000
vt 0.0000 1.0000
vt 0.0000 0.0000
vt 1.0000 0.0000
vt 0.0000 1.0000
vt 0.0000 0.0000
vt 1.0000 0.0000
vt 1.0000 0.0000
vt 0.0000 1.0000
vt 0.0000 0.0000
vt 1.0000 1.0000
vt 1.0000 1.0000
vt 1.0000 1.0000
vt 1.0000 1.0000
vt 1.0000 1.0000
vt 1.0000 1.0000
vt 1.0000 1.0000
vt 1.0000 1.0000
vt 1.0000 1.0000
vt 1.0000 1.0000
vt 1.0000 1.0000
vt 1.0000 1.0000
vt 1.0000 1.0000
vt 1.0000 1.0000
vt 1.0000 1.0000
vt 1.0000 1.0000
vt 1.0000 1.0000
vt 1.0000 1.0000
vt 1.0000 1.0000
vt 1.0000 1.0000
vt 1.0000 1.0000
vt 1.0000 1.0000
vt 1.0000 1.0000
vt 1.0000 1.0000
vt 0.0000 0.0000
vt 0.0000 1.0000
vt 0.0000 1.0000
vt 0.0000 0.0000
vt 0.0000 1.0000
vt 0.0000 0.0000
vn -1.0000 0.0000 0.0000
vn 0.0000 0.0000 -1.0000
vn 1.0000 0.0000 0.0000
vn 0.0000 0.0000 1.0000
vn 0.0000 -1.0000 0.0000
vn 0.0000 1.0000 0.0000
s off
f 2/1/1 3/2/1 1/3/1
f 4/4/2 7/5/2 3/6/2
f 8/7/3 5/8/3 7/9/3
f 6/10/4 1/11/4 5/12/4
f 7/9/5 1/3/5 3/6/5
f 4/4/6 6/13/6 8/14/6
f 10/15/1 11/16/1 9/17/1
f 12/18/2 14/19/2 11/20/2
f 15/21/3 13/22/3 14/23/3
f 5/24/4 9/25/4 13/26/4
f 14/27/5 9/25/5 11/20/5
f 17/28/1 18/29/1 16/30/1
f 19/31/2 22/32/2 18/33/2
f 7/34/3 20/35/3 22/36/3
f 21/37/4 16/38/4 20/39/4
f 22/40/5 16/38/5 18/33/5
f 24/41/1 25/42/1 23/43/1
f 3/44/2 28/45/2 25/46/2
f 29/47/3 26/48/3 28/49/3
f 27/50/4 23/51/4 26/52/4
f 28/53/5 23/51/5 25/46/5
f 32/54/2 35/55/2 31/56/2
f 36/57/3 33/58/3 35/59/3
f 34/60/4 30/61/4 33/62/4
f 35/63/5 30/61/5 31/56/5
f 40/64/1 38/65/1 39/66/1
f 2/1/1 4/67/1 3/2/1
f 4/4/2 8/68/2 7/5/2
f 8/7/3 6/69/3 5/8/3
f 6/10/4 2/70/4 1/11/4
f 7/9/5 5/12/5 1/3/5
f 4/4/6 2/70/6 6/13/6
f 10/15/1 12/71/1 11/16/1
f 12/18/2 15/72/2 14/19/2
f 15/21/3 5/73/3 13/22/3
f 5/24/4 10/74/4 9/25/4
f 14/27/5 13/75/5 9/25/5
f 17/28/1 19/76/1 18/29/1
f 19/31/2 7/77/2 22/32/2
f 7/34/3 21/78/3 20/35/3
f 21/37/4 17/79/4 16/38/4
f 22/40/5 20/80/5 16/38/5
f 24/41/1 3/81/1 25/42/1
f 3/44/2 29/82/2 28/45/2
f 29/47/3 27/83/3 26/48/3
f 27/50/4 24/84/4 23/51/4
f 28/53/5 26/85/5 23/51/5
f 32/54/2 36/86/2 35/55/2
f 36/57/3 34/87/3 33/58/3
f 34/60/4 1/88/4 30/61/4
f 35/63/5 33/89/5 30/61/5
f 40/64/1 37/90/1 38/65/1
f 12/18/6 5/8/6 15/91/6
f 19/31/6 21/92/6 7/9/6
f 3/44/6 27/93/6 29/94/6
f 32/54/6 34/95/6 36/96/6
f 12/18/6 10/74/6 5/8/6
f 19/31/6 17/79/6 21/92/6
f 3/44/6 24/84/6 27/93/6
f 32/54/6 1/88/6 34/95/6
o mesa.000
v -24.000000 2.110000 -21.000000
v -24.000000 2.310000 -21.000000
v -24.000000 2.110000 -23.000000
v -24.000000 2.310000 -23.000000
v -20.000000 2.110000 -21.000000
v -20.000000 2.310000 -21.000000
v -20.000000 2.110000 -23.000000
v -20.000000 2.310000 -23.000000
v -20.200001 0.110000 -21.000000
v -20.200001 2.110000 -21.000000
v -20.200001 0.110000 -21.200001
v -20.200001 2.110000 -21.200001
v -20.000000 0.110000 -21.000000
v -20.000000 0.110000 -21.200001
v -20.000000 2.110000 -21.200001
v -20.200001 0.110000 -22.799999
v -20.200001 2.110000 -22.799999
v -20.200001 0.110000 -23.000000
v -20.200001 2.110000 -23.000000
v -20.000000 0.110000 -22.799999
v -20.000000 2.110000 -22.799999
v -20.000000 0.110000 -23.000000
v -24.000000 0.110000 -22.799999
v -24.000000 2.110000 -22.799999
v -24.000000 0.110000 -23.000000
v -23.799999 0.110000 -22.799999
v -23.799999 2.110000 -22.799999
v -23.799999 0.110000 -23.000000
v -23.799999 2.110000 -23.000000
v -24.000000 0.110000 -21.000000
v -24.000000 0.110000 -21.200001
v -24.000000 2.110000 -21.200001
v -23.799999 0.110000 -21.000000
v -23.799999 2.110000 -21.000000
v -23.799999 0.110000 -21.200001
v -23.799999 2.110000 -21.200001
v -24.000000 2.110000 -21.200001
v -24.000000 0.110000 -21.200001
v -24.000000 0.110000 -21.000000
v -24.000000 2.110000 -21.000000
vt 1.0000 0.0000
vt 0.0000 1.0000
vt 0.0000 0.0000
vt 1.0000 0.0000
vt 0.0000 1.0000
vt 0.0000 0.0000
vt 1.0000 0.0000
vt 0.0000 1.0000
vt 0.0000 0.0000
vt 1.0000 0.0000
vt 0.0000 1.0000
vt 0.0000 0.0000
vt 0.0000 1.0000
vt 0.0000 0.0000
vt 1.0000 0.0000
vt 0.0000 1.0000
vt 0.0000 0.0000
vt 1.0000 0.0000
vt 0.0000 1.0000
vt 0.0000 0.0000
vt 1.0000 0.0000
vt 0.0000 1.0000
vt 0.0000 0.0000
vt 1.0000 0.0000
vt 0.0000 1.0000
vt 0.0000 0.0000
vt 1.0000 0.0000
vt 1.0000 0.0000
vt 0.0000 1.0000
vt 0.0000 0.0000
vt 1.0000 0.0000
vt 0.0000 1.0000
vt 0.0000 0.0000
vt 1.0000 0.0000
vt 0.0000 1.0000
vt 0.0000 0.0000
vt 1.0000 0.0000
vt 0.0000 1.0000
vt 0.0000 0.0000
vt 1.0000 0.0000
vt 1.0000 0.0000
vt 0.0000 1.0000
vt 0.0000 0.0000
vt 1.0000 0.0000
vt 0.0000 1.0000
vt 0.0000 0.0000
vt 1.0000 0.0000
vt 0.0000 1.0000
vt 0.0000 0.0000
vt 1.0000 0.0000
vt 0.0000 1.0000
vt 0.0000 0.0000
vt 1.0000 0.0000
vt 1.0000 0.0000
vt 0.0000 1.0000
vt 0.0000 0.0000
vt 1.0000 0.0000
vt 0.0000 1.0000
vt 0.0000 0.0000
vt 1.0000 0.0000
vt 0.0000 1.0000
vt 0.0000 0.0000
vt 1.0000 0.0000
vt 1.0000 0.0000
vt 0.0000 1.0000
vt 0.0000 0.0000
vt 1.0000 1.0000
vt 1.0000 1.0000
vt 1.0000 1.0000
vt 1.0000 1.0000
vt 1.0000 1.0000
vt 1.0000 1.0000
vt 1.0000 1.0000
vt 1.0000 1.0000
vt 1.0000 1.0000
vt 1.0000 1.0000
vt 1.0000 1.0000
vt 1.0000 1.0000
vt 1.0000 1.0000
vt 1.0000 1.0000
vt 1.0000 1.0000
vt 1.0000 1.0000
vt 1.0000 1.0000
vt 1.0000 1.0000
vt 1.0000 1.0000
vt 1.0000 1.0000
vt 1.0000 1.0000
vt 1.0000 1.0000
vt 1.0000 1.0000
vt 1.0000 1.0000
vt 0.0000 0.0000
vt 0.0000 1.0000
vt 0.0000 1.0000
vt 0.0000 0.0000
vt 0.0000 1.0000
vt 0.0000 0.0000
vn -1.0000 0.0000 0.0000
vn 0.0000 0.0000 -1.0000
vn 1.0000 0.0000 0.0000
vn 0.0000 0.0000 1.0000
vn 0.0000 -1.0000 0.0000
vn 0.0000 1.0000 0.0000
s off
f 42/97/7 43/98/7 41/99/7
f 44/100/8 47/101/8 43/102/8
f 48/103/9 45/104/9 47/105/9
f 46/106/10 41/107/10 45/108/10
f 47/105/11 41/99/11 43/102/11
f 44/100/12 46/109/12 48/110/12
f 50/111/7 51/112/7 49/113/7
f 52/114/8 54/115/8 51/116/8
f 55/117/9 53/118/9 54/119/9
f 45/120/10 49/121/10 53/122/10
f 54/123/11 49/121/11 51/116/11
f 57/124/7 58/125/7 56/126/7
f 59/127/8 62/128/8 58/129/8
f 47/130/9 60/131/9 62/132/9
f 61/133/10 56/134/10 60/135/10
f 62/136/11 56/134/11 58/129/11
f 64/137/7 65/138/7 63/139/7
f 43/140/8 68/141/8 65/142/8
f 69/143/9 66/144/9 68/145/9
f 67/146/10 63/147/10 66/148/10
f 68/149/11 63/147/11 65/142/11
f 72/150/8 75/151/8 71/152/8
f 76/153/9 73/154/9 75/155/9
f 74/156/10 70/157/10 73/158/10
f 75/159/11 70/157/11 71/152/11
f 80/160/7 78/161/7 79/162/7
f 42/97/7 44/163/7 43/98/7
f 44/100/8 48/164/8 47/101/8
f 48/103/9 46/165/9 45/104/9
f 46/106/10 42/166/10 41/107/10
f 47/105/11 45/108/11 41/99/11
f 44/100/12 42/166/12 46/109/12
f 50/111/7 52/167/7 51/112/7
f 52/114/8 55/168/8 54/115/8
f 55/117/9 45/169/9 53/118/9
f 45/120/10 50/170/10 49/121/10
f 54/123/11 53/171/11 49/121/11
f 57/124/7 59/172/7 58/125/7
f 59/127/8 47/173/8 62/128/8
f 47/130/9 61/174/9 60/131/9
f 61/133/10 57/175/10 56/134/10
f 62/136/11 60/176/11 56/134/11
f 64/137/7 43/177/7 65/138/7
f 43/140/8 69/178/8 68/141/8
f 69/143/9 67/179/9 66/144/9
f 67/146/10 64/180/10 63/147/10
f 68/149/11 66/181/11 63/147/11
f 72/150/8 76/182/8 75/151/8
f 76/153/9 74/183/9 73/154/9
f 74/156/10 41/184/10 70/157/10
f 75/159/11 73/185/11 70/157/11
f 80/160/7 77/186/7 78/161/7
f 52/114/12 45/104/12 55/187/12
f 59/127/12 61/188/12 47/105/12
f 43/140/12 67/189/12 69/190/12
f 72/150/12 74/191/12 76/192/12
f 52/114/12 50/170/12 45/104/12
f 59/127/12 57/175/12 61/188/12
f 43/140/12 64/180/12 67/189/12
f 72/150/12 41/184/12 74/191/12
