# Blender v2.78 (sub 0) OBJ File: 'teto.blend'
# www.blender.org
o teto
v 24.999990 5.100000 -24.999987
v 24.999990 5.100000 24.999989
v -24.999992 5.100000 24.999983
v -24.999981 5.100000 -24.999998
v 25.000002 5.300000 -24.999973
v 24.999973 5.300000 25.000002
v -25.000000 5.300000 24.999979
v -24.999989 5.300000 -24.999989
vt 0.0000 0.0000
vt 0.0000 0.0000
vt 0.0000 0.0000
vt 0.0000 0.0000
vt 0.0000 0.0000
vt 0.0000 0.0000
vt 0.0000 0.0000
vt 0.0000 0.0000
vt -3.9346 4.9346
vt 4.9346 -3.9346
vt 4.9346 4.9346
vt 0.0001 0.9999
vt 0.9999 0.0001
vt 0.9999 0.9999
vt -3.9346 -3.9346
vt 0.0001 0.0001
vn 1.0000 -0.0001 0.0000
vn -0.0000 -0.0001 1.0000
vn -1.0000 -0.0000 -0.0000
vn 0.0000 0.0001 -1.0000
vn 1.0000 0.0001 0.0000
vn -0.0000 0.0000 1.0000
vn 0.0000 0.0000 -1.0000
vn 0.0000 -1.0000 0.0000
vn 0.0000 1.0000 0.0000
s off
f 5/1/1 2/2/1 1/3/1
f 6/4/2 3/5/2 2/2/2
f 3/5/3 8/6/3 4/7/3
f 1/3/4 8/6/4 5/1/4
f 5/1/5 6/4/5 2/2/5
f 6/4/6 7/8/6 3/5/6
f 3/5/3 7/8/3 8/6/3
f 1/3/7 4/7/7 8/6/7
f 2/9/8 4/10/8 1/11/8
f 8/12/9 6/13/9 5/14/9
f 2/9/8 3/15/8 4/10/8
f 8/12/9 7/16/9 6/13/9
