# Blender v2.78 (sub 0) OBJ File: 'porta.blend'
# www.blender.org
o porta.004
v 4.900000 0.100000 11.000000
v 4.900000 5.100000 11.000000
v 5.100000 0.100000 11.000000
v 5.100000 5.100000 11.000000
v 4.900000 0.100000 13.000000
v 4.900000 5.100000 13.000000
v 5.100000 0.100000 13.000000
v 5.100000 5.100000 13.000000
vt 0.0000 0.0000
vt 0.0100 0.0000
vt 0.0000 0.0000
vt 1.0000 -0.0000
vt -0.0000 1.0000
vt 0.0000 0.0000
vt 0.0000 0.0000
vt 0.0000 0.0000
vt -0.0000 0.9999
vt 1.0000 0.0000
vt 1.0000 0.9999
vt 0.0001 0.0001
vt 0.0000 0.0000
vt 0.0000 0.0000
vt 0.0000 0.0000
vt 1.0000 1.0000
vn 0.0000 0.0000 -1.0000
vn 1.0000 0.0000 0.0000
vn 0.0000 0.0000 1.0000
vn -1.0000 0.0000 0.0000
vn 0.0000 -1.0000 0.0000
vn 0.0000 1.0000 0.0000
s off
f 4/1/1 1/2/1 2/3/1
f 8/4/2 3/5/2 4/1/2
f 6/6/3 7/7/3 8/8/3
f 2/9/4 5/10/4 6/11/4
f 3/12/5 5/13/5 1/14/5
f 8/8/6 2/3/6 6/6/6
f 4/1/1 3/15/1 1/2/1
f 8/4/2 7/16/2 3/5/2
f 6/6/3 5/13/3 7/7/3
f 2/9/4 1/14/4 5/10/4
f 3/12/5 7/7/5 5/13/5
f 8/8/6 4/1/6 2/3/6
o porta.000
v -7.100000 0.100000 11.000000
v -7.100000 5.100000 11.000000
v -6.900000 0.100000 11.000000
v -6.900000 5.100000 11.000000
v -7.100000 0.100000 13.000000
v -7.100000 5.100000 13.000000
v -6.900000 0.100000 13.000000
v -6.900000 5.100000 13.000000
vt 0.0000 0.0000
vt 0.0100 0.0000
vt 0.0000 0.0000
vt 1.0000 -0.0000
vt -0.0000 1.0000
vt 0.0000 0.0000
vt 0.0000 0.0000
vt 0.0000 0.0000
vt -0.0000 0.9999
vt 1.0000 0.0000
vt 1.0000 0.9999
vt 0.0001 0.0001
vt 0.0000 0.0000
vt 0.0000 0.0000
vt 0.0000 0.0000
vt 1.0000 1.0000
vn 0.0000 0.0000 -1.0000
vn 1.0000 0.0000 0.0000
vn 0.0000 0.0000 1.0000
vn -1.0000 0.0000 0.0000
vn 0.0000 -1.0000 0.0000
vn 0.0000 1.0000 0.0000
s off
f 12/17/7 9/18/7 10/19/7
f 16/20/8 11/21/8 12/17/8
f 14/22/9 15/23/9 16/24/9
f 10/25/10 13/26/10 14/27/10
f 11/28/11 13/29/11 9/30/11
f 16/24/12 10/19/12 14/22/12
f 12/17/7 11/31/7 9/18/7
f 16/20/8 15/32/8 11/21/8
f 14/22/9 13/29/9 15/23/9
f 10/25/10 9/30/10 13/26/10
f 11/28/11 15/23/11 13/29/11
f 16/24/12 12/17/12 10/19/12
o porta.005
v -4.900000 0.100000 -11.000000
v -4.900000 5.100000 -11.000000
v -5.100000 0.100000 -11.000000
v -5.100000 5.100000 -11.000000
v -4.900000 0.100000 -13.000000
v -4.900000 5.100000 -13.000000
v -5.100000 0.100000 -13.000000
v -5.100000 5.100000 -13.000000
vt 0.0000 0.0000
vt 0.0100 0.0000
vt 0.0000 0.0000
vt 1.0000 -0.0000
vt -0.0000 1.0000
vt 0.0000 0.0000
vt 0.0000 0.0000
vt 0.0000 0.0000
vt -0.0000 0.9999
vt 1.0000 0.0000
vt 1.0000 0.9999
vt 0.0001 0.0001
vt 0.0000 0.0000
vt 0.0000 0.0000
vt 0.0000 0.0000
vt 1.0000 1.0000
vn 0.0000 0.0000 1.0000
vn -1.0000 0.0000 0.0000
vn 0.0000 0.0000 -1.0000
vn 1.0000 0.0000 0.0000
vn 0.0000 -1.0000 0.0000
vn 0.0000 1.0000 0.0000
s off
f 20/33/13 17/34/13 18/35/13
f 24/36/14 19/37/14 20/33/14
f 22/38/15 23/39/15 24/40/15
f 18/41/16 21/42/16 22/43/16
f 19/44/17 21/45/17 17/46/17
f 24/40/18 18/35/18 22/38/18
f 20/33/13 19/47/13 17/34/13
f 24/36/14 23/48/14 19/37/14
f 22/38/15 21/45/15 23/39/15
f 18/41/16 17/46/16 21/42/16
f 19/44/17 23/39/17 21/45/17
f 24/40/18 20/33/18 18/35/18
o porta.003
v 1.100000 0.100000 -11.000000
v 1.100000 5.100000 -11.000000
v 0.900000 0.100000 -11.000000
v 0.900000 5.100000 -11.000000
v 1.100000 0.100000 -13.000000
v 1.100000 5.100000 -13.000000
v 0.900000 0.100000 -13.000000
v 0.900000 5.100000 -13.000000
vt 0.0000 0.0000
vt 0.0100 0.0000
vt 0.0000 0.0000
vt 1.0000 -0.0000
vt -0.0000 1.0000
vt 0.0000 0.0000
vt 0.0000 0.0000
vt 0.0000 0.0000
vt -0.0000 0.9999
vt 1.0000 0.0000
vt 1.0000 0.9999
vt 0.0001 0.0001
vt 0.0000 0.0000
vt 0.0000 0.0000
vt 0.0000 0.0000
vt 1.0000 1.0000
vn 0.0000 0.0000 1.0000
vn -1.0000 0.0000 -0.0000
vn 0.0000 0.0000 -1.0000
vn 1.0000 0.0000 0.0000
vn 0.0000 -1.0000 0.0000
vn 0.0000 1.0000 0.0000
s off
f 28/49/19 25/50/19 26/51/19
f 32/52/20 27/53/20 28/49/20
f 30/54/21 31/55/21 32/56/21
f 26/57/22 29/58/22 30/59/22
f 27/60/23 29/61/23 25/62/23
f 32/56/24 26/51/24 30/54/24
f 28/49/19 27/63/19 25/50/19
f 32/52/20 31/64/20 27/53/20
f 30/54/21 29/61/21 31/55/21
f 26/57/22 25/62/22 29/58/22
f 27/60/23 31/55/23 29/61/23
f 32/56/24 28/49/24 26/51/24
o porta.006
v -5.000000 0.100000 -1.100000
v -5.000000 5.100000 -1.100000
v -5.000000 0.100000 -0.900000
v -5.000000 5.100000 -0.900000
v -7.000000 0.100000 -1.100000
v -7.000000 5.100000 -1.100000
v -7.000000 0.100000 -0.900000
v -7.000000 5.100000 -0.900000
vt 0.0000 0.0000
vt 0.0100 0.0000
vt 0.0000 0.0000
vt 1.0000 -0.0000
vt -0.0000 1.0000
vt 0.0000 0.0000
vt 0.0000 0.0000
vt 0.0000 0.0000
vt -0.0000 0.9999
vt 1.0000 0.0000
vt 1.0000 0.9999
vt 0.0001 0.0001
vt 0.0000 0.0000
vt 0.0000 0.0000
vt 0.0000 0.0000
vt 1.0000 1.0000
vn 1.0000 0.0000 0.0000
vn 0.0000 0.0000 1.0000
vn -1.0000 0.0000 0.0000
vn -0.0000 0.0000 -1.0000
vn 0.0000 -1.0000 0.0000
vn 0.0000 1.0000 0.0000
s off
f 36/65/25 33/66/25 34/67/25
f 40/68/26 35/69/26 36/65/26
f 38/70/27 39/71/27 40/72/27
f 34/73/28 37/74/28 38/75/28
f 35/76/29 37/77/29 33/78/29
f 40/72/30 34/67/30 38/70/30
f 36/65/25 35/79/25 33/66/25
f 40/68/26 39/80/26 35/69/26
f 38/70/27 37/77/27 39/71/27
f 34/73/28 33/78/28 37/74/28
f 35/76/29 39/71/29 37/77/29
f 40/72/30 36/65/30 34/67/30
o porta.007
v 5.000000 0.100000 1.100000
v 5.000000 5.100000 1.100000
v 5.000000 0.100000 0.900000
v 5.000000 5.100000 0.900000
v 7.000000 0.100000 1.100000
v 7.000000 5.100000 1.100000
v 7.000000 0.100000 0.900000
v 7.000000 5.100000 0.900000
vt 0.0000 0.0000
vt 0.0100 0.0000
vt 0.0000 0.0000
vt 1.0000 -0.0000
vt -0.0000 1.0000
vt 0.0000 0.0000
vt 0.0000 0.0000
vt 0.0000 0.0000
vt -0.0000 0.9999
vt 1.0000 0.0000
vt 1.0000 0.9999
vt 0.0001 0.0001
vt 0.0000 0.0000
vt 0.0000 0.0000
vt 0.0000 0.0000
vt 1.0000 1.0000
vn -1.0000 0.0000 0.0000
vn 0.0000 0.0000 -1.0000
vn 1.0000 0.0000 0.0000
vn 0.0000 0.0000 1.0000
vn 0.0000 -1.0000 0.0000
vn 0.0000 1.0000 0.0000
s off
f 44/81/31 41/82/31 42/83/31
f 48/84/32 43/85/32 44/81/32
f 46/86/33 47/87/33 48/88/33
f 42/89/34 45/90/34 46/91/34
f 43/92/35 45/93/35 41/94/35
f 48/88/36 42/83/36 46/86/36
f 44/81/31 43/95/31 41/82/31
f 48/84/32 47/96/32 43/85/32
f 46/86/33 45/93/33 47/87/33
f 42/89/34 41/94/34 45/90/34
f 43/92/35 47/87/35 45/93/35
f 48/88/36 44/81/36 42/83/36
o porta.001
v 7.100000 0.100000 -11.000000
v 7.100000 5.100000 -11.000000
v 6.900000 0.100000 -11.000000
v 6.900000 5.100000 -11.000000
v 7.100000 0.100000 -13.000000
v 7.100000 5.100000 -13.000000
v 6.900000 0.100000 -13.000000
v 6.900000 5.100000 -13.000000
vt 0.0000 0.0000
vt 0.0100 0.0000
vt 0.0000 0.0000
vt 1.0000 -0.0000
vt -0.0000 1.0000
vt 0.0000 0.0000
vt 0.0000 0.0000
vt 0.0000 0.0000
vt -0.0000 0.9999
vt 1.0000 0.0000
vt 1.0000 0.9999
vt 0.0001 0.0001
vt 0.0000 0.0000
vt 0.0000 0.0000
vt 0.0000 0.0000
vt 1.0000 1.0000
vn 0.0000 0.0000 1.0000
vn -1.0000 0.0000 0.0000
vn 0.0000 0.0000 -1.0000
vn 1.0000 0.0000 0.0000
vn 0.0000 -1.0000 0.0000
vn 0.0000 1.0000 0.0000
s off
f 52/97/37 49/98/37 50/99/37
f 56/100/38 51/101/38 52/97/38
f 54/102/39 55/103/39 56/104/39
f 50/105/40 53/106/40 54/107/40
f 51/108/41 53/109/41 49/110/41
f 56/104/42 50/99/42 54/102/42
f 52/97/37 51/111/37 49/98/37
f 56/100/38 55/112/38 51/101/38
f 54/102/39 53/109/39 55/103/39
f 50/105/40 49/110/40 53/106/40
f 51/108/41 55/103/41 53/109/41
f 56/104/42 52/97/42 50/99/42
o porta.002
v -1.100000 0.100000 11.000000
v -1.100000 5.100000 11.000000
v -0.900000 0.100000 11.000000
v -0.900000 5.100000 11.000000
v -1.100000 0.100000 13.000000
v -1.100000 5.100000 13.000000
v -0.900000 0.100000 13.000000
v -0.900000 5.100000 13.000000
vt 0.0000 0.0000
vt 0.0100 0.0000
vt 0.0000 0.0000
vt 1.0000 -0.0000
vt -0.0000 1.0000
vt 0.0000 0.0000
vt 0.0000 0.0000
vt 0.0000 0.0000
vt -0.0000 0.9999
vt 1.0000 0.0000
vt 1.0000 0.9999
vt 0.0001 0.0001
vt 0.0000 0.0000
vt 0.0000 0.0000
vt 0.0000 0.0000
vt 1.0000 1.0000
vn 0.0000 0.0000 -1.0000
vn 1.0000 0.0000 0.0000
vn 0.0000 0.0000 1.0000
vn -1.0000 0.0000 -0.0000
vn 0.0000 -1.0000 0.0000
vn 0.0000 1.0000 0.0000
s off
f 60/113/43 57/114/43 58/115/43
f 64/116/44 59/117/44 60/113/44
f 62/118/45 63/119/45 64/120/45
f 58/121/46 61/122/46 62/123/46
f 59/124/47 61/125/47 57/126/47
f 64/120/48 58/115/48 62/118/48
f 60/113/43 59/127/43 57/114/43
f 64/116/44 63/128/44 59/117/44
f 62/118/45 61/125/45 63/119/45
f 58/121/46 57/126/46 61/122/46
f 59/124/47 63/119/47 61/125/47
f 64/120/48 60/113/48 58/115/48
