# Blender v2.78 (sub 0) OBJ File: 'quadro.blend'
# www.blender.org
o quadro.001
v 22.900000 2.532296 24.529999
v 22.900000 4.692296 24.529999
v 23.000000 2.412296 24.770000
v 23.000000 4.812296 24.770000
v 21.100000 2.532296 24.529999
v 21.100000 4.692296 24.529999
v 21.000000 2.412296 24.770000
v 21.000000 4.812296 24.770000
v 22.809999 2.640296 24.650000
v 22.809999 4.584296 24.650000
v 21.190001 2.640296 24.650000
v 21.190001 4.584296 24.650000
vt 0.9996 1.0000
vt 0.0004 0.0001
vt 0.9999 0.0003
vt 0.0001 0.9997
vt 1.0000 0.0000
vt 0.0000 1.0000
vt 0.0000 0.0000
vt 1.0000 0.0000
vt 0.0000 1.0000
vt 0.0000 0.0000
vt 0.0000 0.0000
vt 1.0000 1.0000
vt 0.0000 1.0000
vt 1.0000 0.0000
vt 0.0000 1.0000
vt 0.0000 0.0000
vt 1.0000 0.0000
vt 0.0000 1.0000
vt 0.0000 1.0000
vt 0.0000 0.0000
vt 1.0000 0.0000
vt 0.0000 1.0000
vt 0.0000 1.0000
vt 0.0000 0.0000
vt 1.0000 0.0000
vt 0.0000 1.0000
vt 0.0000 0.0000
vt 1.0000 1.0000
vt 1.0000 1.0000
vt 1.0000 0.0000
vt 1.0000 1.0000
vt 1.0000 1.0000
vt 1.0000 1.0000
vt 1.0000 1.0000
vt 1.0000 1.0000
vt 1.0000 1.0000
vn 0.0000 0.0000 -1.0000
vn 0.9231 0.0000 -0.3846
vn 0.0000 0.0000 1.0000
vn -0.9231 0.0000 -0.3846
vn -0.8000 0.0000 -0.6000
vn 0.0000 -0.8944 -0.4472
vn 0.0000 0.8944 -0.4472
vn 0.0000 0.7433 -0.6690
vn 0.0000 -0.7433 -0.6690
vn 0.8000 0.0000 -0.6000
s off
f 12/1/1 9/2/1 11/3/1
f 12/1/1 10/4/1 9/2/1
f 2/5/2 3/6/2 1/7/2
f 4/8/3 7/9/3 3/10/3
f 7/11/4 6/12/4 5/13/4
f 1/14/5 10/15/5 2/16/5
f 7/17/6 1/18/6 3/10/6
f 4/8/7 6/19/7 8/20/7
f 5/21/8 9/22/8 1/7/8
f 2/5/9 12/23/9 6/24/9
f 6/25/10 11/26/10 5/27/10
f 2/5/2 4/28/2 3/6/2
f 4/8/3 8/29/3 7/9/3
f 7/11/4 8/30/4 6/12/4
f 1/14/5 9/31/5 10/15/5
f 7/17/6 5/32/6 1/18/6
f 4/8/7 2/33/7 6/19/7
f 5/21/8 11/34/8 9/22/8
f 2/5/9 10/35/9 12/23/9
f 6/25/10 12/36/10 11/26/10
o quadro.000
v -22.900000 2.532296 -24.529999
v -22.900000 4.692296 -24.529999
v -23.000000 2.412296 -24.770000
v -23.000000 4.812296 -24.770000
v -21.100000 2.532296 -24.529999
v -21.100000 4.692296 -24.529999
v -21.000000 2.412296 -24.770000
v -21.000000 4.812296 -24.770000
v -22.809999 2.640296 -24.650000
v -22.809999 4.584296 -24.650000
v -21.190001 2.640296 -24.650000
v -21.190001 4.584296 -24.650000
vt 1.0000 0.0000
vt 0.0000 1.0000
vt 0.0000 0.0000
vt 1.0000 0.0000
vt 0.0000 1.0000
vt 0.0000 0.0000
vt 0.0000 0.0000
vt 1.0000 1.0000
vt 0.0000 1.0000
vt 1.0000 0.0000
vt 0.0000 1.0000
vt 0.0000 0.0000
vt 1.0000 0.0000
vt 0.0000 1.0000
vt 0.0000 1.0000
vt 0.0000 0.0000
vt 0.9996 1.0000
vt 0.0004 0.0001
vt 0.9999 0.0003
vt 1.0000 0.0000
vt 0.0000 1.0000
vt 0.0000 1.0000
vt 0.0000 0.0000
vt 1.0000 0.0000
vt 0.0000 1.0000
vt 0.0000 0.0000
vt 1.0000 1.0000
vt 1.0000 1.0000
vt 1.0000 0.0000
vt 1.0000 1.0000
vt 1.0000 1.0000
vt 1.0000 1.0000
vt 0.0001 0.9997
vt 1.0000 1.0000
vt 1.0000 1.0000
vt 1.0000 1.0000
vn -0.9231 0.0000 0.3846
vn 0.0000 0.0000 -1.0000
vn 0.9231 0.0000 0.3846
vn 0.8000 0.0000 0.6000
vn 0.0000 -0.8944 0.4472
vn 0.0000 0.8944 0.4472
vn 0.0000 0.0000 1.0000
vn 0.0000 0.7433 0.6690
vn 0.0000 -0.7433 0.6690
vn -0.8000 0.0000 0.6000
s off
f 14/37/11 15/38/11 13/39/11
f 16/40/12 19/41/12 15/42/12
f 19/43/13 18/44/13 17/45/13
f 13/46/14 22/47/14 14/48/14
f 19/49/15 13/50/15 15/42/15
f 16/40/16 18/51/16 20/52/16
f 24/53/17 21/54/17 23/55/17
f 17/56/18 21/57/18 13/39/18
f 14/37/19 24/58/19 18/59/19
f 18/60/20 23/61/20 17/62/20
f 14/37/11 16/63/11 15/38/11
f 16/40/12 20/64/12 19/41/12
f 19/43/13 20/65/13 18/44/13
f 13/46/14 21/66/14 22/47/14
f 19/49/15 17/67/15 13/50/15
f 16/40/16 14/68/16 18/51/16
f 24/53/17 22/69/17 21/54/17
f 17/56/18 23/70/18 21/57/18
f 14/37/19 22/71/19 24/58/19
f 18/60/20 24/72/20 23/61/20
