# Blender v2.78 (sub 0) OBJ File: 'fechadura.blend'
# www.blender.org
o fechadura.004
v 4.885000 2.160000 12.471312
v 4.885000 2.640000 12.471312
v 5.115000 2.160000 12.471312
v 5.115000 2.640000 12.471312
v 4.885000 2.160000 12.676229
v 4.885000 2.640000 12.676229
v 5.115000 2.160000 12.676229
v 5.115000 2.640000 12.676229
vt 0.0000 0.0000
vt 0.0000 0.0000
vt 0.0000 0.0000
vt 1.0162 1.0000
vt 0.0034 0.0265
vt 1.0162 0.0265
vt 0.0000 0.0000
vt 0.0000 0.0000
vt 0.0000 0.0000
vt 1.0149 0.9985
vt 0.0020 0.0250
vt 1.0149 0.0250
vt 0.0000 0.0000
vt 0.0000 0.0000
vt 0.0034 1.0000
vt 0.0020 0.9985
vn 0.0000 0.0000 -1.0000
vn 1.0000 0.0000 0.0000
vn 0.0000 0.0000 1.0000
vn -1.0000 0.0000 0.0000
vn 0.0000 -1.0000 0.0000
vn 0.0000 1.0000 0.0000
s off
f 2/1/1 3/2/1 1/3/1
f 4/4/2 7/5/2 3/6/2
f 8/7/3 5/8/3 7/9/3
f 6/10/4 1/11/4 5/12/4
f 7/9/5 1/3/5 3/2/5
f 4/13/6 6/14/6 8/7/6
f 2/1/1 4/13/1 3/2/1
f 4/4/2 8/15/2 7/5/2
f 8/7/3 6/14/3 5/8/3
f 6/10/4 2/16/4 1/11/4
f 7/9/5 5/8/5 1/3/5
f 4/13/6 2/1/6 6/14/6
o fechadura.000
v -7.115000 2.160000 12.471312
v -7.115000 2.640000 12.471312
v -6.885000 2.160000 12.471312
v -6.885000 2.640000 12.471312
v -7.115000 2.160000 12.676229
v -7.115000 2.640000 12.676229
v -6.885000 2.160000 12.676229
v -6.885000 2.640000 12.676229
vt 0.0000 0.0000
vt 0.0000 0.0000
vt 0.0000 0.0000
vt 1.0162 1.0000
vt 0.0034 0.0265
vt 1.0162 0.0265
vt 0.0000 0.0000
vt 0.0000 0.0000
vt 0.0000 0.0000
vt 1.0149 0.9985
vt 0.0020 0.0250
vt 1.0149 0.0250
vt 0.0000 0.0000
vt 0.0000 0.0000
vt 0.0034 1.0000
vt 0.0020 0.9985
vn 0.0000 0.0000 -1.0000
vn 1.0000 0.0000 0.0000
vn 0.0000 0.0000 1.0000
vn -1.0000 0.0000 0.0000
vn 0.0000 -1.0000 0.0000
vn 0.0000 1.0000 0.0000
s off
f 10/17/7 11/18/7 9/19/7
f 12/20/8 15/21/8 11/22/8
f 16/23/9 13/24/9 15/25/9
f 14/26/10 9/27/10 13/28/10
f 15/25/11 9/19/11 11/18/11
f 12/29/12 14/30/12 16/23/12
f 10/17/7 12/29/7 11/18/7
f 12/20/8 16/31/8 15/21/8
f 16/23/9 14/30/9 13/24/9
f 14/26/10 10/32/10 9/27/10
f 15/25/11 13/24/11 9/19/11
f 12/29/12 10/17/12 14/30/12
o fechadura.005
v -4.885000 2.160000 -12.471312
v -4.885000 2.640000 -12.471312
v -5.115000 2.160000 -12.471312
v -5.115000 2.640000 -12.471312
v -4.885000 2.160000 -12.676229
v -4.885000 2.640000 -12.676229
v -5.115000 2.160000 -12.676229
v -5.115000 2.640000 -12.676229
vt 0.0000 0.0000
vt 0.0000 0.0000
vt 0.0000 0.0000
vt 1.0162 1.0000
vt 0.0034 0.0265
vt 1.0162 0.0265
vt 0.0000 0.0000
vt 0.0000 0.0000
vt 0.0000 0.0000
vt 1.0149 0.9985
vt 0.0020 0.0250
vt 1.0149 0.0250
vt 0.0000 0.0000
vt 0.0000 0.0000
vt 0.0034 1.0000
vt 0.0020 0.9985
vn 0.0000 0.0000 1.0000
vn -1.0000 0.0000 0.0000
vn 0.0000 0.0000 -1.0000
vn 1.0000 0.0000 0.0000
vn 0.0000 -1.0000 0.0000
vn 0.0000 1.0000 0.0000
s off
f 18/33/13 19/34/13 17/35/13
f 20/36/14 23/37/14 19/38/14
f 24/39/15 21/40/15 23/41/15
f 22/42/16 17/43/16 21/44/16
f 23/41/17 17/35/17 19/34/17
f 20/45/18 22/46/18 24/39/18
f 18/33/13 20/45/13 19/34/13
f 20/36/14 24/47/14 23/37/14
f 24/39/15 22/46/15 21/40/15
f 22/42/16 18/48/16 17/43/16
f 23/41/17 21/40/17 17/35/17
f 20/45/18 18/33/18 22/46/18
o fechadura.003
v 1.115000 2.160000 -12.471312
v 1.115000 2.640000 -12.471312
v 0.885000 2.160000 -12.471312
v 0.885000 2.640000 -12.471312
v 1.115000 2.160000 -12.676229
v 1.115000 2.640000 -12.676229
v 0.885000 2.160000 -12.676229
v 0.885000 2.640000 -12.676229
vt 0.0000 0.0000
vt 0.0000 0.0000
vt 0.0000 0.0000
vt 1.0162 1.0000
vt 0.0034 0.0265
vt 1.0162 0.0265
vt 0.0000 0.0000
vt 0.0000 0.0000
vt 0.0000 0.0000
vt 1.0149 0.9985
vt 0.0020 0.0250
vt 1.0149 0.0250
vt 0.0000 0.0000
vt 0.0000 0.0000
vt 0.0034 1.0000
vt 0.0020 0.9985
vn 0.0000 0.0000 1.0000
vn -1.0000 0.0000 0.0000
vn 0.0000 0.0000 -1.0000
vn 1.0000 0.0000 0.0000
vn 0.0000 -1.0000 0.0000
vn 0.0000 1.0000 0.0000
s off
f 26/49/19 27/50/19 25/51/19
f 28/52/20 31/53/20 27/54/20
f 32/55/21 29/56/21 31/57/21
f 30/58/22 25/59/22 29/60/22
f 31/57/23 25/51/23 27/50/23
f 28/61/24 30/62/24 32/55/24
f 26/49/19 28/61/19 27/50/19
f 28/52/20 32/63/20 31/53/20
f 32/55/21 30/62/21 29/56/21
f 30/58/22 26/64/22 25/59/22
f 31/57/23 29/56/23 25/51/23
f 28/61/24 26/49/24 30/62/24
o fechadura.006
v -6.471312 2.160000 -1.115000
v -6.471312 2.640000 -1.115000
v -6.471312 2.160000 -0.885000
v -6.471312 2.640000 -0.885000
v -6.676229 2.160000 -1.115000
v -6.676229 2.640000 -1.115000
v -6.676229 2.160000 -0.885000
v -6.676229 2.640000 -0.885000
vt 0.0000 0.0000
vt 0.0000 0.0000
vt 0.0000 0.0000
vt 1.0162 1.0000
vt 0.0034 0.0265
vt 1.0162 0.0265
vt 0.0000 0.0000
vt 0.0000 0.0000
vt 0.0000 0.0000
vt 1.0149 0.9985
vt 0.0020 0.0250
vt 1.0149 0.0250
vt 0.0000 0.0000
vt 0.0000 0.0000
vt 0.0034 1.0000
vt 0.0020 0.9985
vn 1.0000 0.0000 0.0000
vn 0.0000 0.0000 1.0000
vn -1.0000 0.0000 0.0000
vn -0.0000 0.0000 -1.0000
vn 0.0000 -1.0000 0.0000
vn 0.0000 1.0000 0.0000
s off
f 34/65/25 35/66/25 33/67/25
f 36/68/26 39/69/26 35/70/26
f 40/71/27 37/72/27 39/73/27
f 38/74/28 33/75/28 37/76/28
f 35/66/29 37/72/29 33/67/29
f 36/77/30 38/78/30 40/71/30
f 34/65/25 36/77/25 35/66/25
f 36/68/26 40/79/26 39/69/26
f 40/71/27 38/78/27 37/72/27
f 38/74/28 34/80/28 33/75/28
f 35/66/29 39/73/29 37/72/29
f 36/77/30 34/65/30 38/78/30
o fechadura.007
v 6.471312 2.160000 1.115000
v 6.471312 2.640000 1.115000
v 6.471312 2.160000 0.885000
v 6.471312 2.640000 0.885000
v 6.676229 2.160000 1.115000
v 6.676229 2.640000 1.115000
v 6.676229 2.160000 0.885000
v 6.676229 2.640000 0.885000
vt 0.0000 0.0000
vt 0.0000 0.0000
vt 0.0000 0.0000
vt 1.0162 1.0000
vt 0.0034 0.0265
vt 1.0162 0.0265
vt 0.0000 0.0000
vt 0.0000 0.0000
vt 0.0000 0.0000
vt 1.0149 0.9985
vt 0.0020 0.0250
vt 1.0149 0.0250
vt 0.0000 0.0000
vt 0.0000 0.0000
vt 0.0034 1.0000
vt 0.0020 0.9985
vn -1.0000 0.0000 0.0000
vn 0.0000 0.0000 -1.0000
vn 1.0000 0.0000 0.0000
vn 0.0000 0.0000 1.0000
vn 0.0000 -1.0000 0.0000
vn 0.0000 1.0000 0.0000
s off
f 42/81/31 43/82/31 41/83/31
f 44/84/32 47/85/32 43/86/32
f 48/87/33 45/88/33 47/89/33
f 46/90/34 41/91/34 45/92/34
f 47/89/35 41/83/35 43/82/35
f 44/93/36 46/94/36 48/87/36
f 42/81/31 44/93/31 43/82/31
f 44/84/32 48/95/32 47/85/32
f 48/87/33 46/94/33 45/88/33
f 46/90/34 42/96/34 41/91/34
f 47/89/35 45/88/35 41/83/35
f 44/93/36 42/81/36 46/94/36
o fechadura.001
v 7.115000 2.160000 -12.471312
v 7.115000 2.640000 -12.471312
v 6.885000 2.160000 -12.471312
v 6.885000 2.640000 -12.471312
v 7.115000 2.160000 -12.676229
v 7.115000 2.640000 -12.676229
v 6.885000 2.160000 -12.676229
v 6.885000 2.640000 -12.676229
vt 0.0000 0.0000
vt 0.0000 0.0000
vt 0.0000 0.0000
vt 1.0162 1.0000
vt 0.0034 0.0265
vt 1.0162 0.0265
vt 0.0000 0.0000
vt 0.0000 0.0000
vt 0.0000 0.0000
vt 1.0149 0.9985
vt 0.0020 0.0250
vt 1.0149 0.0250
vt 0.0000 0.0000
vt 0.0000 0.0000
vt 0.0034 1.0000
vt 0.0020 0.9985
vn 0.0000 0.0000 1.0000
vn -1.0000 0.0000 0.0000
vn 0.0000 0.0000 -1.0000
vn 1.0000 0.0000 0.0000
vn 0.0000 -1.0000 0.0000
vn 0.0000 1.0000 0.0000
s off
f 50/97/37 51/98/37 49/99/37
f 52/100/38 55/101/38 51/102/38
f 56/103/39 53/104/39 55/105/39
f 54/106/40 49/107/40 53/108/40
f 55/105/41 49/99/41 51/98/41
f 52/109/42 54/110/42 56/103/42
f 50/97/37 52/109/37 51/98/37
f 52/100/38 56/111/38 55/101/38
f 56/103/39 54/110/39 53/104/39
f 54/106/40 50/112/40 49/107/40
f 55/105/41 53/104/41 49/99/41
f 52/109/42 50/97/42 54/110/42
o fechadura.002
v -1.115000 2.160000 12.471312
v -1.115000 2.640000 12.471312
v -0.885000 2.160000 12.471312
v -0.885000 2.640000 12.471312
v -1.115000 2.160000 12.676229
v -1.115000 2.640000 12.676229
v -0.885000 2.160000 12.676229
v -0.885000 2.640000 12.676229
vt 0.0000 0.0000
vt 0.0000 0.0000
vt 0.0000 0.0000
vt 1.0162 1.0000
vt 0.0034 0.0265
vt 1.0162 0.0265
vt 0.0000 0.0000
vt 0.0000 0.0000
vt 0.0000 0.0000
vt 1.0149 0.9985
vt 0.0020 0.0250
vt 1.0149 0.0250
vt 0.0000 0.0000
vt 0.0000 0.0000
vt 0.0034 1.0000
vt 0.0020 0.9985
vn 0.0000 0.0000 -1.0000
vn 1.0000 0.0000 0.0000
vn 0.0000 0.0000 1.0000
vn -1.0000 0.0000 0.0000
vn 0.0000 -1.0000 0.0000
vn 0.0000 1.0000 0.0000
s off
f 58/113/43 59/114/43 57/115/43
f 60/116/44 63/117/44 59/118/44
f 64/119/45 61/120/45 63/121/45
f 62/122/46 57/123/46 61/124/46
f 63/121/47 57/115/47 59/114/47
f 60/125/48 62/126/48 64/119/48
f 58/113/43 60/125/43 59/114/43
f 60/116/44 64/127/44 63/117/44
f 64/119/45 62/126/45 61/120/45
f 62/122/46 58/128/46 57/123/46
f 63/121/47 61/120/47 57/115/47
f 60/125/48 58/113/48 62/126/48
